<svg width="85" height="138" viewBox="0 0 85 138" fill="none" xmlns="http://www.w3.org/2000/svg">
<path d="M42.5222 2.22828C42.989 2.22828 43.4448 2.34868 43.8895 2.58948C44.3343 2.82782 44.6807 3.17059 44.9289 3.61779C45.1771 4.06252 45.3012 4.52692 45.3012 5.01097C45.3012 5.49011 45.1783 5.95082 44.9326 6.3931C44.6893 6.83538 44.3466 7.17938 43.9043 7.42509C43.4645 7.66835 43.0037 7.78998 42.5222 7.78998C42.0406 7.78998 41.5786 7.66835 41.1363 7.42509C40.6965 7.17938 40.3537 6.83538 40.108 6.3931C39.8623 5.95082 39.7395 5.49011 39.7395 5.01097C39.7395 4.52692 39.8635 4.06252 40.1117 3.61779C40.3623 3.17059 40.71 2.82782 41.1548 2.58948C41.5995 2.34868 42.0553 2.22828 42.5222 2.22828ZM42.5222 2.68899C42.1315 2.68899 41.7506 2.78974 41.3796 2.99122C41.011 3.19025 40.7223 3.4765 40.5135 3.84998C40.3046 4.22101 40.2002 4.608 40.2002 5.01097C40.2002 5.41148 40.3021 5.79602 40.5061 6.16459C40.7125 6.5307 41 6.81696 41.3685 7.02335C41.7371 7.22729 42.1216 7.32927 42.5222 7.32927C42.9227 7.32927 43.3072 7.22729 43.6758 7.02335C44.0443 6.81696 44.3306 6.5307 44.5345 6.16459C44.7385 5.79602 44.8404 5.41148 44.8404 5.01097C44.8404 4.608 44.736 4.22101 44.5272 3.84998C44.3208 3.4765 44.0321 3.19025 43.661 2.99122C43.29 2.78974 42.9104 2.68899 42.5222 2.68899ZM41.3022 6.5479V3.55513H42.3305C42.6819 3.55513 42.9362 3.58339 43.0934 3.6399C43.2507 3.69396 43.376 3.78978 43.4694 3.92738C43.5627 4.06498 43.6094 4.21118 43.6094 4.36598C43.6094 4.58466 43.5308 4.77509 43.3735 4.93726C43.2187 5.09943 43.0123 5.19034 42.7543 5.21C42.86 5.25423 42.9448 5.30706 43.0087 5.36848C43.1291 5.48643 43.2765 5.68422 43.4509 5.96188L43.8158 6.5479H43.2261L42.9607 6.07613C42.7519 5.70511 42.5836 5.47291 42.4558 5.37954C42.3674 5.31074 42.2384 5.27634 42.0688 5.27634H41.785V6.5479H41.3022ZM41.785 4.86355H42.371C42.6511 4.86355 42.8416 4.82177 42.9423 4.73823C43.0455 4.65469 43.0971 4.54412 43.0971 4.40652C43.0971 4.31806 43.0725 4.23944 43.0234 4.17064C42.9743 4.09938 42.9055 4.04655 42.817 4.01215C42.731 3.97775 42.5701 3.96055 42.3342 3.96055H41.785V4.86355Z" fill="#C2AB6C"/>
<g clip-path="url(#clip0_94_778)">
<path d="M55.8307 29.7373C55.8307 33.6744 54.0813 37.203 51.3178 39.5839C50.6975 40.1225 50.0215 40.6017 49.3046 41.0139C47.3955 42.1134 45.1817 42.7411 42.8231 42.7411C40.4645 42.7411 38.2508 42.1134 36.3453 41.0139C35.6285 40.6017 34.9525 40.1225 34.3285 39.5839C31.5687 37.1956 29.8193 33.6707 29.8193 29.7373C29.8193 22.5575 35.6396 16.7334 42.8194 16.7334C49.9992 16.7334 55.8233 22.5575 55.8233 29.7373H55.8307Z" stroke="#BDA561" stroke-width="2.2286" stroke-miterlimit="10"/>
<path d="M52.4442 66.6903C53.6824 61.3781 50.3797 56.068 45.0675 54.8299C39.7553 53.5917 34.4452 56.8944 33.2071 62.2066C31.9689 67.5188 35.2716 72.8289 40.5838 74.0671C45.896 75.3052 51.2061 72.0025 52.4442 66.6903Z" stroke="#BDA561" stroke-width="2.2286" stroke-miterlimit="10"/>
<path d="M55.6413 40.3481C55.0656 39.7501 55.0804 38.7993 55.6784 38.2236C56.2764 37.6478 57.2273 37.6627 57.803 38.2607C58.3787 38.8587 58.3639 39.8096 57.7659 40.3853C57.1679 40.961 56.217 40.9462 55.6413 40.3481Z" fill="#BDA561"/>
<path d="M41.0922 81.3296C40.1674 80.3713 40.1934 78.841 41.1517 77.9161C42.11 76.9912 43.6403 77.0172 44.5651 77.9755C45.49 78.9338 45.464 80.4641 44.5057 81.389C43.5474 82.3139 42.0171 82.2879 41.0922 81.3296Z" fill="#BDA561"/>
<path d="M59.2479 32.2029C58.4344 32.0321 57.9181 31.2335 58.089 30.42C58.2598 29.6066 59.0584 29.0903 59.8719 29.2612C60.6853 29.432 61.2016 30.2306 61.0307 31.044C60.8599 31.8575 60.0613 32.3738 59.2479 32.2029Z" fill="#BDA561"/>
<path d="M58.4641 23.3306C57.6953 23.6426 56.8187 23.2711 56.5067 22.4986C56.1947 21.7297 56.5661 20.8531 57.3387 20.5411C58.1076 20.2291 58.9841 20.6005 59.2961 21.3731C59.6082 22.142 59.2367 23.0186 58.4641 23.3306Z" fill="#BDA561"/>
<path d="M52.8518 16.4139C52.3875 17.1011 51.4515 17.2831 50.7643 16.8188C50.0772 16.3545 49.8952 15.4185 50.3595 14.7313C50.8238 14.0442 51.7598 13.8622 52.4469 14.3265C53.1341 14.7907 53.3161 15.7268 52.8518 16.4139Z" fill="#BDA561"/>
<path d="M29.771 40.3481C30.3467 39.7501 30.3318 38.7993 29.7338 38.2236C29.1358 37.6478 28.185 37.6627 27.6092 38.2607C27.0335 38.8587 27.0484 39.8096 27.6464 40.3853C28.2444 40.961 29.1952 40.9462 29.771 40.3481Z" fill="#BDA561"/>
<path d="M26.1606 32.2029C26.9741 32.0321 27.4904 31.2335 27.3195 30.42C27.1486 29.6066 26.3501 29.0903 25.5366 29.2612C24.7232 29.432 24.2069 30.2306 24.3777 31.044C24.5486 31.8575 25.3472 32.3738 26.1606 32.2029Z" fill="#BDA561"/>
<path d="M26.9444 23.3306C27.7133 23.6426 28.5899 23.2711 28.9019 22.4986C29.2139 21.7297 28.8424 20.8531 28.0699 20.5411C27.301 20.2291 26.4244 20.6005 26.1124 21.3731C25.8004 22.142 26.1718 23.0186 26.9444 23.3306Z" fill="#BDA561"/>
<path d="M32.5567 16.4139C33.021 17.1011 33.957 17.2831 34.6441 16.8188C35.3313 16.3545 35.5133 15.4185 35.049 14.7313C34.5847 14.0442 33.6487 13.8622 32.9615 14.3265C32.2744 14.7907 32.0924 15.7268 32.5567 16.4139Z" fill="#BDA561"/>
<path d="M42.8305 14.619C43.6613 14.619 44.3348 13.9455 44.3348 13.1147C44.3348 12.2839 43.6613 11.6104 42.8305 11.6104C41.9997 11.6104 41.3262 12.2839 41.3262 13.1147C41.3262 13.9455 41.9997 14.619 42.8305 14.619Z" fill="#BDA561"/>
<path d="M7.39586 88.2758L40.3716 31.1569C41.3225 29.5115 43.696 29.5115 44.6468 31.1569L77.6263 88.2758C78.5772 89.9213 77.3886 91.979 75.4869 91.979H9.53531C7.63357 91.979 6.4487 89.9213 7.39586 88.2758Z" stroke="#BDA561" stroke-width="2.2286" stroke-miterlimit="10"/>
<path d="M77.6264 53.5167L44.6506 110.636C43.6997 112.281 41.3262 112.281 40.3754 110.636L7.39588 53.5167C6.44501 51.8712 7.63359 49.8135 9.53533 49.8135H75.4869C77.3886 49.8135 78.5735 51.8712 77.6264 53.5167Z" stroke="#BDA561" stroke-width="2.2286" stroke-miterlimit="10"/>
<path d="M39.744 32.1633C38.2397 30.607 38.2842 28.1258 39.8405 26.6215C41.3968 25.1172 43.878 25.1618 45.3823 26.7181C46.8866 28.2744 46.8421 30.7556 45.2857 32.2599C43.7294 33.7642 41.2483 33.7196 39.744 32.1633Z" fill="#BDA561"/>
<path d="M39.744 32.1633C38.2397 30.607 38.2842 28.1258 39.8405 26.6215C41.3968 25.1172 43.878 25.1618 45.3823 26.7181C46.8866 28.2744 46.8421 30.7556 45.2857 32.2599C43.7294 33.7642 41.2483 33.7196 39.744 32.1633Z" fill="#BDA561"/>
</g>
<path d="M5.86643 137.53V123.962H1.34358V120.781H14.2412V123.962H9.64376V137.53H5.86643ZM26.1907 127.391V130.448H20.0277V134.449H26.9114V137.53H16.2504V120.781H26.5635V123.887H20.0277V127.391H26.1907ZM38.223 133.231H33.402L32.2091 137.53H28.3075L33.4268 120.781H38.3721L43.5908 137.53H39.5153L38.223 133.231ZM33.9487 130.423H37.6515L36.6077 126.869C36.3344 125.875 36.0361 124.608 35.7628 123.639H35.7131C35.4646 124.633 35.2161 125.9 34.9427 126.869L33.9487 130.423ZM60.2228 137.53L59.9495 131.144C59.8749 129.106 59.8004 126.695 59.8252 124.235H59.7507C59.2039 126.372 58.5081 128.758 57.8868 130.746L55.8242 137.257H52.8918L51.0777 130.796C50.531 128.832 49.9843 126.447 49.5618 124.235H49.5121C49.4376 126.521 49.3382 129.106 49.2387 131.193L48.9157 137.53H45.4117L46.5052 120.781H51.5499L53.1652 126.397C53.7119 128.311 54.2338 130.423 54.6065 132.386H54.6811C55.1284 130.448 55.7 128.236 56.2715 126.372L58.0608 120.781H63.0061L63.9008 137.53H60.2228ZM72.4209 137.754V134.822C72.9179 134.871 73.3155 134.846 74.0611 134.822C75.2291 134.747 76.397 134.399 77.242 133.827C78.3106 133.107 79.0064 132.038 79.2797 130.821L79.23 130.796C78.5094 131.541 77.4408 131.964 75.9746 131.964C73.241 131.964 70.9547 130.075 70.9547 126.944C70.9547 123.788 73.4895 121.104 77.0432 121.104C81.1933 121.104 83.1565 124.31 83.1565 128.062C83.1565 131.442 82.0879 133.877 80.3235 135.517C78.7827 136.909 76.6456 137.655 74.1356 137.754C73.5143 137.804 72.8434 137.779 72.4209 137.754ZM76.9189 123.887C75.6267 123.887 74.7072 125.03 74.7072 126.695C74.7072 128.087 75.4776 129.28 76.9935 129.28C78.0372 129.28 78.7579 128.808 79.1058 128.236C79.23 128.012 79.2797 127.739 79.2797 127.292C79.3046 125.552 78.6336 123.887 76.9189 123.887Z" fill="#C2AB6C"/>
<defs>
<clipPath id="clip0_94_778">
<rect width="73.1277" height="101.371" fill="white" transform="translate(5.94727 11.6104)"/>
</clipPath>
</defs>
</svg>
