<?xml version="1.0" encoding="utf-8"?>
<!-- Generator: Adobe Illustrator 27.5.0, SVG Export Plug-In . SVG Version: 6.00 Build 0)  -->
<svg version="1.1" xmlns="http://www.w3.org/2000/svg" xmlns:xlink="http://www.w3.org/1999/xlink" x="0px" y="0px"
	 viewBox="0 0 2200 2200" style="enable-background:new 0 0 2200 2200;" xml:space="preserve">
<g id="background">
	<rect style="fill:#FFFFFF;" width="2200" height="2200"/>
</g>
<g id="Objects">
	<g>
		<g>
			<path style="fill:#31AF76;" d="M1626.983,623.289c-12.753-47.736-7.446-102.988-31.629-144.779
				c-24.525-42.39-75.264-65.289-109.671-99.689c-34.399-34.407-57.298-85.146-99.688-109.671
				c-41.791-24.183-97.043-18.876-144.779-31.629c-46.125-12.333-91.2-44.911-141.215-44.911s-95.09,32.579-141.215,44.911
				c-47.736,12.753-102.988,7.446-144.779,31.629c-42.39,24.525-65.289,75.264-99.689,109.671
				c-34.407,34.399-85.146,57.298-109.671,99.689c-24.183,41.791-18.876,97.043-31.629,144.779
				c-12.333,46.125-44.911,91.2-44.911,141.215c0,50.015,32.578,95.09,44.911,141.215c12.753,47.736,7.446,102.988,31.629,144.779
				c24.525,42.39,75.264,65.289,109.671,99.689c34.399,34.407,57.298,85.146,99.689,109.671
				c41.791,24.183,97.043,18.876,144.779,31.629c46.125,12.333,91.2,44.911,141.215,44.911s95.09-32.579,141.215-44.911
				c47.736-12.753,102.988-7.446,144.779-31.629c42.39-24.525,65.289-75.264,99.688-109.671
				c34.407-34.399,85.146-57.298,109.671-99.689c24.183-41.791,18.876-97.043,31.629-144.779
				c12.333-46.125,44.911-91.2,44.911-141.215C1671.894,714.489,1639.316,669.414,1626.983,623.289z M1100,1220.853
				c-252.038,0-456.348-204.31-456.348-456.348S847.962,308.156,1100,308.156s456.348,204.31,456.348,456.348
				S1352.038,1220.853,1100,1220.853z"/>
			<path style="fill:#31AF76;" d="M1100,1178.447c-55.867,0-110.08-10.949-161.135-32.544
				c-49.297-20.851-93.562-50.693-131.566-88.697c-38.005-38.004-67.846-82.269-88.697-131.566
				c-21.594-51.055-32.544-105.269-32.544-161.135s10.949-110.08,32.544-161.136c20.851-49.296,50.693-93.561,88.697-131.566
				c38.004-38.004,82.269-67.846,131.566-88.697c51.055-21.595,105.269-32.544,161.135-32.544s110.08,10.949,161.135,32.544
				c49.297,20.85,93.562,50.692,131.566,88.697c38.005,38.005,67.846,82.27,88.697,131.566
				c21.594,51.056,32.544,105.269,32.544,161.136s-10.949,110.08-32.544,161.135c-20.851,49.297-50.693,93.562-88.697,131.566
				c-38.004,38.005-82.269,67.846-131.566,88.697C1210.08,1167.497,1155.867,1178.447,1100,1178.447z M1100,397.579
				c-49.551,0-97.6,9.696-142.813,28.82c-43.688,18.479-82.933,44.94-116.642,78.65c-33.71,33.71-60.172,72.955-78.651,116.643
				c-19.123,45.213-28.819,93.262-28.819,142.813c0,49.551,9.697,97.6,28.819,142.813c18.479,43.688,44.941,82.933,78.651,116.642
				c33.709,33.71,72.954,60.172,116.642,78.651c45.213,19.123,93.262,28.819,142.813,28.819s97.6-9.697,142.813-28.819
				c43.688-18.479,82.933-44.941,116.642-78.651c33.71-33.709,60.172-72.954,78.651-116.642
				c19.123-45.213,28.819-93.262,28.819-142.813c0-49.551-9.697-97.6-28.819-142.813c-18.479-43.689-44.941-82.933-78.651-116.643
				c-33.709-33.71-72.954-60.172-116.642-78.65C1197.6,407.275,1149.551,397.579,1100,397.579z"/>
			<g>
				<path style="fill:#31AF76;" d="M1056.706,1023.171c-21.689,0-41.31-12.016-51.206-31.358
					c-18.122-35.422-70.144-125.542-161.6-197.194c-8.985-7.04-12.561-19.032-8.899-29.843
					c3.658-10.795,13.773-18.134,25.171-18.261c0.731-0.009,1.466-0.013,2.196-0.013c37.739,0,75.455,10.919,109.072,31.576
					c24.841,15.276,47.767,36.06,67.504,61.038c25.059-47.27,59.65-99.411,96.462-144.91
					c37.596-46.468,95.191-108.143,156.069-138.075c3.512-1.727,7.25-2.603,11.11-2.603c9.792,0,18.752,5.822,22.824,14.832
					c4.1,9.072,2.544,19.369-4.059,26.872c-113.045,128.423-167.785,262.698-210.1,388.669
					c-7.079,21.076-25.895,36.34-47.933,38.887C1061.129,1023.042,1058.905,1023.171,1056.706,1023.171z"/>
			</g>
			<path style="fill:#31AF76;" d="M1129.651,1367.546l-170.57,493.475c-5.947,17.183-29.025,20.083-39.029,4.896l-95.454-144.859
				c-5.469-8.294-15.835-11.873-25.255-8.73l-164.527,54.991c-17.247,5.767-33.613-10.758-27.676-27.952l162.531-470.217
				c8.273,7.487,17.311,14.337,27.315,20.125c32.052,18.543,67.363,22.674,101.518,26.667c18.415,2.145,35.811,4.184,51.508,8.379
				c14.773,3.951,30.31,10.705,46.771,17.863c30.374,13.222,64.815,28.196,103.217,28.196
				C1110.163,1370.381,1120.051,1369.33,1129.651,1367.546z"/>
			<path style="fill:#31AF76;" d="M1476.813,1702.717l-165.196-52.973c-9.463-3.027-19.775,0.68-25.148,9.027l-93.67,146.027
				c-9.813,15.314-32.933,12.691-39.082-4.429l-73.109-203.418l82.444-238.518c14.093-4.906,27.485-10.737,40.165-16.249
				c16.461-7.158,31.999-13.912,46.771-17.863c15.697-4.195,33.092-6.234,51.508-8.379c23.014-2.687,46.548-5.448,69.254-12.638
				l133.389,371.121C1510.288,1691.534,1494.134,1708.272,1476.813,1702.717z"/>
		</g>
		<ellipse style="fill:#D3DDD8;" cx="1100" cy="1982.923" rx="464.484" ry="24.467"/>
	</g>
</g>
</svg>
